PathFileType	4	(X/Y/Z)	OpenSim_Sub10_EMGBaseline_Gyro.trc
DataRate	CameraRate	NumFrames	NumMarkers	Units	OrigDataRate	OrigDataStartFrame	OrigNumFrames
100	100	41	8	m	100	7176	8201
Frame#	Time	torso_imu_offset_imu	pelvis_imu_offset_imu	tibia_r_imu_offset_imu	femur_r_imu_offset_imu	tibia_l_imu_offset_imu	femur_l_imu_offset_imu	toes_r_imu_offset_imu	toes_l_imu_offset_imu
				X1	Y1	Z1	X2	Y2	Z2	X3	Y3	Z3	X4	Y4	Z4	X5	Y5	Z5	X6	Y6	Z6	X7	Y7	Z7	X8		Y8	Z8	

7176	71.75000000	0.42840100	0.21823700	0.06429600	-0.07208700	-0.03280900	0.28501100	1.50758500	0.23020300	-1.03647500	0.79627400	-0.13893400	-0.89018700	0.08079700	-0.09598800	1.99448300	0.83505400	0.37214500	-0.40698300	-0.83248500	-2.21684600	-0.20819500	0.46261700	-2.30269400	0.00077400
7177	71.76000000	0.35663300	0.24681700	0.03816500	-0.18027400	-0.13105600	0.30774100	2.85046100	0.59048800	-1.51611600	0.80079900	-0.14570700	-0.69715200	0.05024700	-0.11553500	2.09817200	0.83538500	0.47801000	-0.52869600	3.45176700	0.28394100	0.22624800	0.34574800	-2.66300000	-0.01895100
7178	71.77000000	0.34156400	0.21978200	0.04106300	-0.21288300	-0.19927900	0.31663400	3.63731500	0.91179000	-1.75606000	0.96130800	-0.18164500	-0.48623300	0.06262200	-0.15312000	2.18505200	0.75987800	0.55843000	-0.65795700	2.41344700	-0.16950200	-0.25823200	0.47954600	-3.06978600	-0.05572100
7179	71.78000000	0.27533500	0.19687400	0.03203000	-0.19719600	-0.27996100	0.29582600	3.62553900	0.54816200	-1.77825200	1.24176100	-0.16076800	-0.26435600	0.17568200	-0.16850700	2.26938600	0.61259800	0.62639000	-0.76788800	-1.55748000	-0.28211000	0.01448000	0.09424300	-3.44594700	-0.06131200
7180	71.79000000	0.18972700	0.16841500	0.01554300	-0.09709700	-0.37127700	0.25251900	2.78949500	-0.38802900	-1.55264700	1.47249300	-0.06206800	-0.09780300	0.32303700	-0.22522100	2.34808100	0.43616200	0.69461200	-0.87309900	1.05026400	0.05952900	-0.04730500	0.42833700	-3.94319400	-0.12892600
7181	71.80000000	0.18798700	0.15333600	-0.03474100	0.07180700	-0.39140200	0.20432100	2.04217000	-0.84284800	-1.32990600	1.46519300	0.11951400	-0.05865300	0.48014000	-0.30067700	2.44738700	0.28052900	0.78303600	-1.00488000	0.05627700	0.01911100	-0.08881400	0.42648300	-4.45734200	-0.20709600
7182	71.81000000	0.19250500	0.19118300	-0.09238100	0.24115400	-0.30621800	0.14938400	1.94263200	-0.62638300	-1.39702300	1.26243700	0.21025900	-0.22988000	0.68939000	-0.35611300	2.59331900	0.20792900	0.94538200	-1.14827200	0.21976900	0.10991600	-0.15949800	1.13468400	-4.90513400	-0.25857900
7183	71.82000000	0.18272600	0.20955500	-0.11704800	0.35200800	-0.13738900	0.08486700	1.56808700	-0.27977100	-1.43281100	0.99329700	0.12650000	-0.54416800	0.89991000	-0.35239500	2.71163700	0.20620400	1.07944200	-1.24805000	0.63569200	0.23684300	-0.21588300	0.40048100	-5.11483000	-0.16900500
7184	71.83000000	0.13575700	0.13905400	-0.14492300	0.41440600	0.02540000	0.05444200	0.64909100	-0.24837800	-1.09036000	0.58051700	-0.08801600	-0.93602500	0.92275100	-0.26834600	2.76658100	0.27039900	1.10148100	-1.33477900	0.37306300	0.13757000	-0.23347000	0.23796000	-5.40505800	-0.17602500
7185	71.84000000	0.19262100	0.10317200	-0.16308000	0.43654000	0.14602000	0.04035700	-0.02615200	-0.52675800	-0.47051400	0.08459900	-0.38330400	-1.32095700	0.81900700	-0.18871000	2.80254500	0.30149000	1.09039000	-1.46032400	0.37544600	0.09796000	-0.19156400	1.12674300	-5.62789200	-0.22317500
7186	71.85000000	0.29048700	0.12815400	-0.18493800	0.42145000	0.23604300	0.03517000	-0.04965700	-0.57256200	-0.11471300	-0.36740600	-0.61769500	-1.64893100	0.56379900	-0.14457000	2.92812100	0.28909800	1.03854800	-1.62791800	0.25427400	0.05508900	-0.12406500	2.00056100	-5.75704000	0.05589800
7187	71.86000000	0.36154100	0.13503500	-0.19601100	0.41774500	0.29394200	0.03832000	-0.19779000	-0.37242300	-0.32649500	-0.73460400	-0.61034400	-1.78929300	0.26290300	-0.20853900	3.09250600	0.28101300	0.96170400	-1.81084000	0.24838800	0.03768000	-0.09745200	0.26204400	-5.69859300	0.72225400
7188	71.87000000	0.38950400	0.10620900	-0.20556800	0.44812800	0.30681500	0.05240700	-0.65627000	-0.25430400	-0.67973200	-1.04152200	-0.37528200	-1.71950800	-0.00702200	-0.26770400	3.08174600	0.29618900	0.86162700	-2.00747300	0.22608400	0.02480300	-0.08157900	-1.43816900	-6.11175900	1.10427900
7189	71.88000000	0.41649700	0.06443000	-0.20434900	0.47951200	0.29434800	0.06985100	-0.84478600	-0.13814700	-0.69129900	-1.26130700	-0.10074000	-1.48579400	-0.31149000	-0.29370100	2.89049100	0.32583500	0.73052800	-2.18234800	0.12571700	-0.00087500	-0.05277400	0.85839100	-5.87604500	1.15159300
7190	71.89000000	0.44105500	0.02156700	-0.19083300	0.47351900	0.28562100	0.08595200	-0.67056800	-0.12376400	-0.55253300	-1.31905400	0.05487200	-1.17966100	-0.60157700	-0.42283200	2.67330100	0.41331300	0.62069200	-2.33087800	0.10103500	0.00292800	-0.03656400	-0.70766200	-5.83655300	1.63250900
7191	71.90000000	0.48614900	-0.02127600	-0.14699700	0.41665000	0.27884700	0.09773100	-0.21212400	-0.19467000	-0.51692900	-1.14536600	0.10146600	-0.95399900	-0.79920100	-0.66329500	2.48720800	0.58798700	0.54342300	-2.40298500	0.09157300	-0.00515400	-0.03464600	0.18892700	-5.34179300	1.69777700
7192	71.91000000	0.52902800	-0.08408400	-0.09950200	0.34631100	0.26534500	0.10377400	0.39298300	-0.20368200	-0.58543700	-0.80479400	0.09945900	-0.82244000	-0.97689300	-0.85979300	2.29476100	0.84584000	0.54124500	-2.39277700	0.12595000	0.00438400	-0.02156300	0.33130400	-4.57153200	1.82824000
7193	71.92000000	0.56550900	-0.17581400	-0.02011700	0.28977900	0.24167800	0.10070900	0.77753700	-0.28730700	-0.65840500	-0.41885500	0.08487300	-0.77330800	-1.01927900	-0.82820000	2.07164500	1.06108100	0.59920900	-2.30675700	0.06069800	-0.00973100	-0.01915200	-0.28900500	-3.90282900	1.79204200
7194	71.93000000	0.57315200	-0.29889900	0.05901600	0.23833500	0.22330900	0.07900900	0.93560500	-0.33637100	-0.66901100	-0.09874400	0.09838100	-0.77863500	-0.75666900	-0.66770800	1.83853000	1.12794800	0.62311600	-2.18058100	0.04150200	-0.01692100	-0.02043800	-0.43834900	-2.99428600	1.40603800
7195	71.94000000	0.48519900	-0.37373000	0.09415700	0.19372500	0.22129400	0.04389900	0.89851100	-0.27399800	-0.59894100	0.17508400	0.11670000	-0.80614600	-0.19597000	-0.30435100	1.65072700	1.04466000	0.60013800	-2.02829000	0.03297100	-0.03012300	-0.02204500	0.05829800	-0.09970900	1.44229500
7196	71.95000000	0.36031600	-0.33299600	0.09890700	0.15995700	0.21653300	-0.01305900	0.75066500	-0.22983500	-0.48415300	0.45477100	0.10079200	-0.83512500	0.00158400	-0.12601400	1.46780100	0.88071000	0.58956400	-1.83255300	0.03122400	-0.03532100	-0.01960100	1.46875400	2.14433900	1.15019800
7197	71.96000000	0.35387200	-0.29173300	0.16504600	0.16198500	0.20592500	-0.07730700	0.59360100	-0.16862800	-0.41842600	0.66993200	0.06349300	-0.87162200	0.57108300	-0.49579900	1.20359600	0.72085100	0.58671600	-1.67240600	-0.00330600	-0.04826800	-0.02189800	1.12593200	2.46177000	1.24397300
7198	71.97000000	0.33190000	-0.30309800	0.21585100	0.20293600	0.19106600	-0.13974400	0.38939900	-0.12780400	-0.45674900	0.77087000	0.02343000	-0.89240400	1.43935300	-1.05001800	0.78623700	0.58342000	0.60172800	-1.57723300	0.05257400	-0.06463800	-0.04458700	0.95690500	2.41870900	1.41964600
7199	71.98000000	0.28803700	-0.32403100	0.26295800	0.25713100	0.19432700	-0.19416400	0.19709700	-0.14219700	-0.54467200	0.78838900	-0.02441700	-0.90222800	2.02822200	-1.34052600	0.17706400	0.47837900	0.62523300	-1.55666600	0.05078600	-0.05530400	-0.04737300	0.14658200	2.60889900	1.45796400
7200	71.99000000	0.30485900	-0.33002500	0.29430600	0.32257400	0.20771400	-0.22853200	0.03999000	-0.12604600	-0.58883200	0.77191500	-0.08625300	-0.92945300	2.38569300	-1.24406800	-0.57155800	0.42058400	0.63133500	-1.60396600	0.03810600	-0.06613600	-0.05218800	0.09404700	3.07261000	1.25430000
7201	72	0.36984600	-0.31615500	0.32037600	0.40654000	0.21027100	-0.24664300	-0.10170200	-0.12313300	-0.54935900	0.73287500	-0.13059900	-0.96055800	2.32837200	-0.87561300	-1.31216500	0.43699900	0.61971100	-1.65614600	0.08875700	-0.06287800	-0.05924500	0.26221800	3.62895400	0.93341600
7202	72.01000000	0.38336300	-0.30452200	0.31191500	0.48096300	0.21395200	-0.24133600	-0.14226900	-0.07402200	-0.46850100	0.68436300	-0.15316300	-1.00311700	1.81439000	-0.46156100	-1.97228900	0.40941300	0.56102800	-1.65509800	0.06264900	-0.08240900	-0.06359900	0.57095100	4.14000100	0.56388800
7203	72.02000000	0.36672600	-0.32570800	0.28486300	0.55173300	0.22384700	-0.21223500	-0.12427200	-0.05106800	-0.39688500	0.59608300	-0.16130200	-1.06568300	1.31188900	-0.18580300	-2.54353100	0.29955400	0.47897000	-1.60426900	0.08825800	-0.06242100	-0.05147700	0.80175200	4.54982300	0.24081500
7204	72.03000000	0.34909000	-0.28501200	0.23185400	0.60355000	0.23326800	-0.16805700	-0.08499700	-0.03522800	-0.36627300	0.48001600	-0.16424300	-1.12976900	1.02100700	-0.04647700	-3.02423000	0.09748900	0.38566400	-1.54161300	0.06604300	-0.06196800	-0.04156800	0.78759200	4.82025200	0.00751900
7205	72.04000000	0.40718300	-0.23583500	0.26978800	0.63559300	0.24454500	-0.12008900	-0.02053800	-0.04784400	-0.36371800	0.34302300	-0.13205500	-1.16680200	0.85056400	0.04055400	-3.39838700	-0.12745700	0.29673500	-1.47874800	0.04873200	-0.06604500	-0.03366700	0.72249700	4.95663400	-0.16541900
7206	72.05000000	0.45442000	-0.27173400	0.27190000	0.64916500	0.25988800	-0.07513100	0.02593500	-0.07177500	-0.34341400	0.19809600	-0.08578200	-1.16626700	0.71273200	0.07781900	-3.73007500	-0.28439500	0.20808600	-1.37490000	0.06517600	-0.07042500	-0.02292800	0.65644800	5.04505200	-0.32059400
7207	72.06000000	0.45404300	-0.31546800	0.23774500	0.64701800	0.26950500	-0.04525300	0.02237300	-0.07252700	-0.28970100	0.11715000	-0.02485500	-1.14467800	0.65854000	0.12179200	-4.08478500	-0.41269100	0.13081100	-1.26173300	0.05782300	-0.06773900	-0.02350900	0.65046600	5.15116300	-0.47702100
7208	72.07000000	0.45103500	-0.30035900	0.20664000	0.61699500	0.28370800	-0.03345000	-0.00432100	-0.05240900	-0.25074600	0.10346200	0.02730400	-1.14123700	0.61292800	0.19060700	-4.44914000	-0.47728500	0.04930600	-1.13854200	0.03390200	-0.07342500	-0.02095600	0.74779600	5.22350300	-0.61386200
7209	72.08000000	0.46741600	-0.23226700	0.18043400	0.56666200	0.31484600	-0.04045700	-0.01618900	-0.04077600	-0.25230400	0.15797200	0.07649700	-1.15231800	0.46837500	0.33165400	-4.79603200	-0.51521000	-0.03072200	-1.04326000	0.02172300	-0.07227900	-0.02718500	0.86936900	5.27416900	-0.69626600
7210	72.09000000	0.50823600	-0.20450500	0.15293800	0.52066000	0.33713200	-0.04716600	-0.10270900	-0.04972500	-0.26267100	0.25754800	0.10086000	-1.19669200	0.39956000	0.52899500	-5.07072900	-0.53176900	-0.09553000	-0.93392700	0.05503300	-0.05518600	-0.04251800	0.86674700	5.37928700	-0.72645500
7211	72.10000000	0.48900500	-0.18317400	0.15298900	0.47826700	0.33717400	-0.06142200	-0.18719600	-0.04174400	-0.25729700	0.37287600	0.10624100	-1.23095000	0.21216500	0.62409500	-5.29143000	-0.51357900	-0.14295300	-0.78503400	0.04344600	-0.05441700	-0.04540000	0.80195500	5.48842500	-0.71992300
7212	72.11000000	0.43463600	-0.15030400	0.15194900	0.43725500	0.32263100	-0.07586400	-0.21916500	-0.02763600	-0.27060800	0.45576700	0.09026500	-1.22638800	-0.32748500	0.67235800	-5.53844400	-0.51018900	-0.16393800	-0.61823600	0.04243400	-0.04629600	-0.04360800	0.87219000	5.56560900	-0.69724400
7213	72.12000000	0.41501700	-0.15853900	0.16616500	0.39430400	0.29916800	-0.08918600	-0.22194500	-0.02301900	-0.31042500	0.49105100	0.05691400	-1.19733000	-1.14326700	0.69762000	-5.82903100	-0.49110000	-0.15591500	-0.43819000	0.02999500	-0.04038100	-0.04297100	0.96513100	5.51866600	-0.66766100
7214	72.13000000	0.38656200	-0.19489100	0.15787600	0.33956800	0.27374300	-0.08859200	-0.19203800	-0.01239000	-0.36145300	0.49082200	-0.00060600	-1.18168100	-1.80896700	0.81081500	-6.05831900	-0.47753200	-0.13421300	-0.24876000	0.01638200	-0.05531500	-0.06122200	0.99039500	5.31541100	-0.67439500
7215	72.14000000	0.31013200	-0.19771500	0.12189400	0.27889800	0.24736700	-0.08112100	-0.19762500	-0.01040500	-0.39200200	0.47909700	-0.04756100	-1.17677100	-1.96859400	0.97732700	-6.14317700	-0.47190300	-0.11341700	-0.05877800	0.03563800	-0.04537900	-0.08973300	0.76251700	5.03085800	-0.76140200
7216	72.15000000	0.22775100	-0.16776300	0.08854800	0.20445400	0.18802100	-0.07167900	-0.14726300	-0.00225200	-0.39275400	0.44432000	-0.04554600	-1.15591500	-1.50378000	1.14346900	-6.10209600	-0.42399100	-0.11443700	0.12066900	0.02891600	-0.04468300	-0.11569400	0.33470300	4.97537800	-1.02506800
